<svg baseProfile="tiny" xmlns="http://www.w3.org/2000/svg" width="248.54" height="86.202" viewBox="0 0 248.54 86.202"><g fill="#FFF"><path d="M75.02 75.175H11.005v-26.55H0v37.577h86.026V48.626H75.02M11.004 11.027H75.02v26.55h11.006V0H0v37.577h11.004"/></g><path fill="#FFF" d="M59.86 60.52c-3.848 2.222-8.63 3.332-14.347 3.332-6.34 0-11.338-1.758-14.993-5.273-3.655-3.518-5.483-8.36-5.483-14.53 0-6.205 1.997-11.264 5.99-15.174 3.996-3.91 9.31-5.866 15.942-5.866 4.177 0 7.86.578 11.048 1.734v8.346c-3.04-1.763-6.76-2.645-11.158-2.645-3.684 0-6.684 1.198-9.002 3.595-2.317 2.396-3.477 5.595-3.477 9.598 0 4.058 1.04 7.197 3.12 9.42 2.08 2.22 4.888 3.332 8.425 3.332 2.125 0 3.81-.304 5.057-.91v-7.71h-7.888v-7.106H59.86V60.52z"/><g fill="#FFF"><path d="M126.868 63.164h-8.658v-4.296h-.137c-2.145 3.323-5.012 4.984-8.604 4.984-6.523 0-9.785-3.956-9.785-11.87v-17.02h8.657v16.25c0 3.983 1.576 5.975 4.728 5.975 1.558 0 2.804-.546 3.738-1.64.935-1.09 1.4-2.573 1.4-4.446V34.96h8.66v28.204zM138.384 30.5c-1.466 0-2.666-.437-3.6-1.31s-1.402-1.94-1.402-3.207c0-1.304.467-2.37 1.4-3.195s2.136-1.24 3.602-1.24c1.484 0 2.69.414 3.614 1.24.926.826 1.39 1.892 1.39 3.195 0 1.32-.464 2.405-1.39 3.25-.925.845-2.13 1.267-3.614 1.267zm4.205 23.107c0 1.194.283 2.098.852 2.713.567.615 1.328.923 2.28.923.478 0 .953-.046 1.43-.138l1.43-.275v6.114c-1.045.275-2.148.5-3.312.675-1.164.173-2.378.26-3.643.26-1.154 0-2.203-.192-3.146-.578-.943-.386-1.75-.94-2.418-1.666-.67-.725-1.187-1.602-1.553-2.63-.368-1.028-.55-2.185-.55-3.47V34.96h8.63v18.647zM160.646 53.607c0 1.194.284 2.098.853 2.713.566.615 1.327.923 2.28.923.477 0 .952-.046 1.43-.138l1.43-.275v6.114c-1.046.275-2.15.5-3.313.675-1.164.173-2.378.26-3.643.26-1.154 0-2.203-.192-3.146-.578-.944-.386-1.75-.94-2.42-1.666-.668-.725-1.186-1.602-1.552-2.63-.367-1.028-.55-2.185-.55-3.47V21.41h8.63v32.195zM197.834 63.164h-8.686V59.28h-.11c-1.978 3.05-4.883 4.572-8.712 4.572-3.52 0-6.35-1.243-8.493-3.73-2.144-2.49-3.216-5.964-3.216-10.426 0-4.663 1.183-8.4 3.546-11.21 2.363-2.808 5.46-4.213 9.29-4.213 3.628 0 6.156 1.305 7.586 3.91h.108v-16.77h8.686v41.75zm-8.52-13.715v-2.122c0-1.836-.532-3.36-1.595-4.57-1.064-1.213-2.447-1.82-4.15-1.82-1.925 0-3.428.76-4.51 2.273s-1.62 3.595-1.62 6.24c0 2.478.522 4.387 1.566 5.728 1.045 1.34 2.49 2.01 4.343 2.01 1.758 0 3.19-.706 4.3-2.12s1.663-3.287 1.663-5.62zM213.555 53.607c0 1.194.284 2.098.853 2.713.567.615 1.328.923 2.28.923.478 0 .953-.046 1.43-.138l1.43-.275v6.114c-1.045.275-2.148.5-3.312.675-1.164.173-2.378.26-3.643.26-1.154 0-2.203-.192-3.146-.578-.944-.386-1.75-.94-2.42-1.666-.668-.725-1.186-1.602-1.552-2.63-.367-1.028-.55-2.185-.55-3.47V21.41h8.63v32.195zM248.488 51.542h-18.36c.294 4.095 2.868 6.142 7.724 6.142 3.097 0 5.817-.734 8.163-2.203v6.28c-2.602 1.396-5.982 2.093-10.142 2.093-4.545 0-8.07-1.262-10.582-3.786s-3.765-6.046-3.765-10.563c0-4.682 1.356-8.39 4.068-11.127 2.71-2.735 6.047-4.104 10.004-4.104 4.104 0 7.28 1.222 9.523 3.663 2.245 2.442 3.367 5.756 3.367 9.942v3.664zm-8.052-5.343c0-4.04-1.63-6.06-4.893-6.06-1.393 0-2.598.578-3.614 1.734-1.018 1.157-1.637 2.6-1.856 4.324h10.362z"/></g></svg>