<svg xmlns="http://www.w3.org/2000/svg" width="248.54" height="86.202" viewBox="0 0 248.54 86.202"><path fill="#CC12A5" d="M75.02 75.175H11.005v-26.55H0v37.577h86.026V48.626H75.02z"/><path fill="#CC7211" d="M11.004 11.027H75.02v26.55h11.006V0H0v37.577h11.004z"/><path fill="#0EAF38" d="M59.86 60.52c-3.848 2.222-8.63 3.333-14.347 3.333-6.34 0-11.338-1.758-14.993-5.274s-5.483-8.36-5.483-14.53c0-6.205 1.997-11.264 5.992-15.174s9.307-5.866 15.94-5.866c4.178 0 7.86.578 11.05 1.735v8.345c-3.043-1.763-6.762-2.644-11.16-2.644-3.683 0-6.684 1.198-9 3.594s-3.478 5.595-3.478 9.598c0 4.058 1.04 7.197 3.12 9.42s4.887 3.332 8.423 3.332c2.125 0 3.81-.303 5.057-.91v-7.71h-7.888v-7.105H59.86V60.52z"/><g fill="#FFF"><path d="M126.868 63.164h-8.658v-4.296h-.137c-2.145 3.323-5.012 4.985-8.604 4.985-6.524 0-9.785-3.957-9.785-11.87V34.96h8.657v16.25c0 3.985 1.576 5.977 4.728 5.977 1.558 0 2.804-.546 3.738-1.64.935-1.09 1.4-2.574 1.4-4.447V34.96h8.66v28.204zM138.384 30.5c-1.466 0-2.666-.436-3.6-1.308s-1.402-1.942-1.402-3.208c0-1.304.467-2.37 1.4-3.195s2.136-1.24 3.602-1.24c1.484 0 2.69.413 3.614 1.24.926.825 1.39 1.89 1.39 3.194 0 1.322-.464 2.405-1.39 3.25-.925.844-2.13 1.266-3.614 1.266zm4.205 23.107c0 1.194.283 2.098.852 2.713.567.615 1.328.922 2.28.922a7.44 7.44 0 0 0 1.43-.138l1.43-.275v6.113c-1.045.275-2.148.5-3.312.675a24.62 24.62 0 0 1-3.643.262c-1.154 0-2.203-.193-3.146-.58-.943-.385-1.75-.94-2.418-1.665s-1.187-1.602-1.553-2.63c-.368-1.028-.55-2.185-.55-3.47V34.96h8.63v18.647zM160.646 53.607c0 1.194.284 2.098.853 2.713.566.615 1.327.922 2.28.922a7.44 7.44 0 0 0 1.43-.138l1.43-.275v6.113c-1.046.275-2.15.5-3.313.675a24.62 24.62 0 0 1-3.643.262c-1.154 0-2.203-.193-3.146-.58-.944-.385-1.75-.94-2.42-1.665s-1.186-1.602-1.552-2.63c-.367-1.028-.55-2.185-.55-3.47V21.412h8.63v32.195zM197.834 63.164h-8.686V59.28h-.11c-1.978 3.048-4.883 4.572-8.712 4.572-3.52 0-6.35-1.244-8.493-3.732-2.144-2.488-3.216-5.962-3.216-10.424 0-4.663 1.183-8.4 3.546-11.21s5.46-4.213 9.29-4.213c3.628 0 6.156 1.304 7.586 3.91h.108v-16.77h8.686v41.75zm-8.52-13.716v-2.12c0-1.837-.532-3.36-1.595-4.573-1.064-1.212-2.447-1.818-4.15-1.818-1.925 0-3.428.757-4.51 2.272-1.08 1.514-1.62 3.593-1.62 6.237 0 2.48.522 4.388 1.566 5.73 1.045 1.34 2.49 2.01 4.343 2.01 1.758 0 3.19-.708 4.3-2.122 1.11-1.412 1.663-3.285 1.663-5.617zM213.555 53.607c0 1.194.284 2.098.853 2.713.567.615 1.328.922 2.28.922a7.44 7.44 0 0 0 1.43-.138l1.43-.275v6.113c-1.045.275-2.148.5-3.312.675a24.62 24.62 0 0 1-3.643.262c-1.154 0-2.203-.193-3.146-.58-.944-.385-1.75-.94-2.42-1.665s-1.186-1.602-1.552-2.63c-.367-1.028-.55-2.185-.55-3.47V21.412h8.63v32.195zM248.488 51.542h-18.36c.294 4.094 2.868 6.142 7.724 6.142 3.097 0 5.817-.734 8.163-2.204v6.28c-2.602 1.395-5.982 2.092-10.142 2.092-4.545 0-8.07-1.262-10.582-3.787s-3.765-6.045-3.765-10.562c0-4.682 1.356-8.39 4.068-11.127 2.71-2.735 6.047-4.104 10.004-4.104 4.104 0 7.28 1.22 9.523 3.663 2.245 2.442 3.367 5.756 3.367 9.942v3.665zm-8.052-5.344c0-4.04-1.63-6.06-4.893-6.06-1.393 0-2.598.58-3.614 1.736s-1.637 2.598-1.856 4.324h10.362z"/></g></svg>