<?xml version="1.0" encoding="utf-8"?>
<!-- Generator: Adobe Illustrator 16.0.0, SVG Export Plug-In . SVG Version: 6.00 Build 0)  -->
<!DOCTYPE svg PUBLIC "-//W3C//DTD SVG 1.1//EN" "http://www.w3.org/Graphics/SVG/1.1/DTD/svg11.dtd">
<svg version="1.1" xmlns="http://www.w3.org/2000/svg" xmlns:xlink="http://www.w3.org/1999/xlink" x="0px" y="0px"
	 width="248.54px" height="86.202px" viewBox="0 0 248.54 86.202" enable-background="new 0 0 248.54 86.202" xml:space="preserve">
<g id="Layer_1" display="none">
	<rect x="-17.947" y="-26.862" display="inline" fill="#212221" width="278.835" height="139.369"/>
</g>
<g id="Layer_2">
	<g>
		<polygon fill="#CC12A5" points="75.021,75.175 11.004,75.175 11.004,48.626 0,48.626 0,86.202 86.026,86.202 86.026,48.626 
			75.021,48.626 		"/>
		<polygon fill="#CC7211" points="11.004,11.027 75.021,11.027 75.021,37.577 86.026,37.577 86.026,0 0,0 0,37.577 11.004,37.577 		
			"/>
	</g>
	<g>
		<path fill="#0EAF38" d="M59.86,60.52c-3.848,2.222-8.63,3.333-14.347,3.333c-6.34,0-11.338-1.758-14.993-5.274
			s-5.483-8.359-5.483-14.528c0-6.206,1.997-11.265,5.992-15.175s9.308-5.866,15.941-5.866c4.178,0,7.861,0.578,11.049,1.735v8.345
			c-3.042-1.763-6.761-2.644-11.159-2.644c-3.683,0-6.684,1.198-9.001,3.594s-3.477,5.595-3.477,9.598
			c0,4.058,1.04,7.197,3.119,9.419s4.888,3.333,8.424,3.333c2.125,0,3.811-0.303,5.057-0.909v-7.711h-7.888v-7.105H59.86V60.52z"/>
	</g>
	<g>
		<path fill="#FFFFFF" d="M126.868,63.164h-8.658v-4.296h-0.137c-2.145,3.323-5.012,4.985-8.604,4.985
			c-6.523,0-9.784-3.957-9.784-11.87V34.961h8.657v16.25c0,3.984,1.576,5.976,4.728,5.976c1.558,0,2.804-0.546,3.738-1.639
			c0.935-1.092,1.401-2.575,1.401-4.448V34.961h8.658V63.164z"/>
		<path fill="#FFFFFF" d="M138.384,30.5c-1.466,0-2.666-0.436-3.601-1.308s-1.401-1.942-1.401-3.208
			c0-1.304,0.467-2.369,1.401-3.195s2.135-1.239,3.601-1.239c1.484,0,2.689,0.413,3.614,1.239c0.926,0.826,1.389,1.891,1.389,3.195
			c0,1.322-0.463,2.405-1.389,3.25C141.073,30.078,139.868,30.5,138.384,30.5z M142.589,53.607c0,1.194,0.284,2.098,0.853,2.713
			c0.567,0.615,1.328,0.922,2.281,0.922c0.477,0,0.952-0.045,1.429-0.138c0.477-0.092,0.953-0.183,1.43-0.275v6.114
			c-1.045,0.275-2.148,0.5-3.312,0.675c-1.164,0.174-2.378,0.262-3.643,0.262c-1.154,0-2.203-0.193-3.146-0.579
			c-0.944-0.386-1.75-0.941-2.419-1.666s-1.187-1.602-1.553-2.63c-0.367-1.028-0.55-2.185-0.55-3.47V34.961h8.63V53.607z"/>
		<path fill="#FFFFFF" d="M160.646,53.607c0,1.194,0.284,2.098,0.853,2.713c0.567,0.615,1.328,0.922,2.281,0.922
			c0.477,0,0.952-0.045,1.429-0.138c0.477-0.092,0.953-0.183,1.43-0.275v6.114c-1.045,0.275-2.148,0.5-3.312,0.675
			c-1.164,0.174-2.378,0.262-3.643,0.262c-1.154,0-2.203-0.193-3.146-0.579c-0.944-0.386-1.75-0.941-2.419-1.666
			s-1.187-1.602-1.553-2.63c-0.367-1.028-0.55-2.185-0.55-3.47V21.412h8.63V53.607z"/>
		<path fill="#FFFFFF" d="M197.834,63.164h-8.686V59.28h-0.109c-1.979,3.048-4.884,4.572-8.713,4.572
			c-3.519,0-6.349-1.244-8.493-3.732c-2.144-2.488-3.216-5.962-3.216-10.424c0-4.663,1.183-8.4,3.546-11.209s5.46-4.214,9.29-4.214
			c3.628,0,6.156,1.304,7.586,3.911h0.109V21.412h8.686V63.164z M189.313,49.448v-2.121c0-1.836-0.531-3.36-1.594-4.572
			c-1.063-1.212-2.446-1.818-4.15-1.818c-1.924,0-3.427,0.757-4.508,2.272c-1.081,1.515-1.621,3.594-1.621,6.238
			c0,2.479,0.522,4.388,1.566,5.729c1.045,1.34,2.491,2.01,4.343,2.01c1.759,0,3.192-0.707,4.301-2.121
			C188.759,53.653,189.313,51.78,189.313,49.448z"/>
		<path fill="#FFFFFF" d="M213.555,53.607c0,1.194,0.284,2.098,0.853,2.713c0.567,0.615,1.328,0.922,2.281,0.922
			c0.477,0,0.952-0.045,1.429-0.138c0.477-0.092,0.953-0.183,1.43-0.275v6.114c-1.045,0.275-2.148,0.5-3.312,0.675
			c-1.164,0.174-2.378,0.262-3.643,0.262c-1.154,0-2.203-0.193-3.146-0.579c-0.944-0.386-1.75-0.941-2.419-1.666
			s-1.187-1.602-1.553-2.63c-0.367-1.028-0.55-2.185-0.55-3.47V21.412h8.63V53.607z"/>
		<path fill="#FFFFFF" d="M248.488,51.542h-18.359c0.293,4.094,2.867,6.142,7.723,6.142c3.097,0,5.817-0.734,8.163-2.204v6.279
			c-2.602,1.396-5.982,2.093-10.142,2.093c-4.545,0-8.071-1.262-10.582-3.787s-3.766-6.045-3.766-10.562
			c0-4.682,1.356-8.391,4.068-11.127c2.711-2.735,6.047-4.104,10.004-4.104c4.104,0,7.279,1.221,9.523,3.663
			c2.245,2.442,3.367,5.756,3.367,9.942V51.542z M240.436,46.198c0-4.039-1.631-6.059-4.893-6.059c-1.393,0-2.598,0.579-3.614,1.735
			s-1.636,2.598-1.855,4.324H240.436z"/>
	</g>
</g>
<g id="Layer_3">
</g>
<g id="Layer_4">
</g>
<g id="Layer_5">
</g>
<g id="Layer_6">
	<g>
	</g>
	<g>
	</g>
	<g>
	</g>
	<g>
	</g>
	<g>
	</g>
	<g>
	</g>
</g>
</svg>
