<?xml version="1.0" encoding="utf-8"?>
<!-- Generator: Adobe Illustrator 16.0.0, SVG Export Plug-In . SVG Version: 6.00 Build 0)  -->
<!DOCTYPE svg PUBLIC "-//W3C//DTD SVG 1.1 Tiny//EN" "http://www.w3.org/Graphics/SVG/1.1/DTD/svg11-tiny.dtd">
<svg version="1.1" baseProfile="tiny" xmlns="http://www.w3.org/2000/svg" xmlns:xlink="http://www.w3.org/1999/xlink" x="0px"
	 y="0px" width="248.54px" height="86.202px" viewBox="0 0 248.54 86.202" xml:space="preserve">
<g id="Layer_1" display="none">
	<rect x="-17.947" y="-26.862" display="inline" fill="#212221" width="278.835" height="139.369"/>
</g>
<g id="Layer_2">
	<g>
		<polygon fill="#FFFFFF" points="75.021,75.175 11.004,75.175 11.004,48.626 0,48.626 0,86.202 86.026,86.202 86.026,48.626
			75.021,48.626 		"/>
		<polygon fill="#FFFFFF" points="11.004,11.027 75.021,11.027 75.021,37.577 86.026,37.577 86.026,0 0,0 0,37.577 11.004,37.577
			"/>
	</g>
	<g>
		<path fill="#FFFFFF" d="M59.86,60.52c-3.848,2.222-8.63,3.332-14.347,3.332c-6.341,0-11.338-1.758-14.993-5.273
			c-3.655-3.517-5.483-8.359-5.483-14.528c0-6.206,1.997-11.265,5.991-15.175c3.995-3.911,9.309-5.866,15.941-5.866
			c4.178,0,7.861,0.578,11.049,1.734v8.346c-3.041-1.763-6.761-2.645-11.158-2.645c-3.684,0-6.684,1.198-9.002,3.595
			c-2.317,2.396-3.477,5.595-3.477,9.598c0,4.058,1.04,7.197,3.119,9.419c2.08,2.222,4.888,3.333,8.425,3.333
			c2.125,0,3.811-0.304,5.057-0.909v-7.712h-7.888v-7.105H59.86V60.52z"/>
	</g>
	<g>
		<path fill="#FFFFFF" d="M126.868,63.164h-8.658v-4.296h-0.137c-2.145,3.323-5.012,4.984-8.604,4.984
			c-6.522,0-9.784-3.956-9.784-11.87V34.961h8.657v16.25c0,3.984,1.576,5.976,4.728,5.976c1.558,0,2.804-0.546,3.738-1.639
			c0.935-1.092,1.401-2.574,1.401-4.447v-16.14h8.658V63.164z"/>
		<path fill="#FFFFFF" d="M138.384,30.5c-1.466,0-2.666-0.437-3.601-1.309s-1.401-1.941-1.401-3.208
			c0-1.304,0.467-2.369,1.401-3.195s2.135-1.239,3.601-1.239c1.484,0,2.689,0.413,3.614,1.239c0.926,0.826,1.389,1.892,1.389,3.195
			c0,1.321-0.463,2.405-1.389,3.249C141.073,30.078,139.868,30.5,138.384,30.5z M142.589,53.607c0,1.194,0.284,2.098,0.853,2.713
			c0.567,0.615,1.328,0.923,2.281,0.923c0.477,0,0.952-0.046,1.429-0.138s0.953-0.184,1.43-0.275v6.114
			c-1.045,0.275-2.148,0.5-3.312,0.675c-1.164,0.174-2.378,0.262-3.643,0.262c-1.154,0-2.203-0.193-3.146-0.579
			c-0.944-0.386-1.75-0.94-2.419-1.666c-0.669-0.725-1.187-1.602-1.553-2.63c-0.367-1.028-0.55-2.185-0.55-3.471V34.961h8.63V53.607
			z"/>
		<path fill="#FFFFFF" d="M160.646,53.607c0,1.194,0.284,2.098,0.853,2.713c0.567,0.615,1.328,0.923,2.281,0.923
			c0.477,0,0.952-0.046,1.429-0.138s0.953-0.184,1.43-0.275v6.114c-1.045,0.275-2.148,0.5-3.312,0.675
			c-1.164,0.174-2.378,0.262-3.643,0.262c-1.154,0-2.203-0.193-3.146-0.579c-0.944-0.386-1.75-0.94-2.419-1.666
			c-0.669-0.725-1.187-1.602-1.553-2.63c-0.367-1.028-0.55-2.185-0.55-3.471V21.412h8.63V53.607z"/>
		<path fill="#FFFFFF" d="M197.834,63.164h-8.686v-3.883h-0.109c-1.979,3.048-4.884,4.571-8.713,4.571
			c-3.519,0-6.349-1.243-8.493-3.731c-2.144-2.488-3.216-5.963-3.216-10.425c0-4.663,1.183-8.399,3.546-11.209
			c2.363-2.809,5.46-4.214,9.29-4.214c3.628,0,6.156,1.305,7.586,3.911h0.109V21.412h8.686V63.164z M189.313,49.449v-2.121
			c0-1.836-0.531-3.36-1.594-4.571c-1.063-1.212-2.446-1.818-4.15-1.818c-1.924,0-3.427,0.758-4.508,2.272s-1.621,3.594-1.621,6.238
			c0,2.479,0.522,4.388,1.566,5.729c1.045,1.34,2.491,2.01,4.343,2.01c1.759,0,3.192-0.706,4.301-2.12
			S189.313,51.781,189.313,49.449z"/>
		<path fill="#FFFFFF" d="M213.555,53.607c0,1.194,0.284,2.098,0.853,2.713c0.567,0.615,1.328,0.923,2.281,0.923
			c0.477,0,0.952-0.046,1.429-0.138s0.953-0.184,1.43-0.275v6.114c-1.045,0.275-2.148,0.5-3.312,0.675
			c-1.164,0.174-2.378,0.262-3.643,0.262c-1.154,0-2.203-0.193-3.146-0.579c-0.944-0.386-1.75-0.94-2.419-1.666
			c-0.669-0.725-1.187-1.602-1.553-2.63c-0.367-1.028-0.55-2.185-0.55-3.471V21.412h8.63V53.607z"/>
		<path fill="#FFFFFF" d="M248.488,51.542h-18.359c0.293,4.095,2.867,6.142,7.723,6.142c3.097,0,5.817-0.734,8.163-2.203v6.279
			c-2.602,1.396-5.982,2.093-10.142,2.093c-4.545,0-8.071-1.262-10.582-3.786s-3.766-6.046-3.766-10.563
			c0-4.682,1.356-8.391,4.068-11.127c2.711-2.735,6.047-4.104,10.004-4.104c4.104,0,7.279,1.222,9.523,3.663
			c2.245,2.442,3.367,5.756,3.367,9.942V51.542z M240.436,46.199c0-4.039-1.631-6.06-4.893-6.06c-1.393,0-2.598,0.579-3.614,1.735
			c-1.017,1.157-1.636,2.599-1.855,4.324H240.436z"/>
	</g>
</g>
</svg>
